<svg width="1280" height="326" viewBox="0 0 1280 326" fill="none" xmlns="http://www.w3.org/2000/svg">
<g clip-path="url(#clip0_5_209)">
<rect width="1280" height="326" rx="20" fill="#FFF3E8"/>
<g filter="url(#filter0_d_5_209)">
<path d="M1116.82 137.872C1086.22 50.2017 1033.62 150.602 940.405 96.3196C828.831 54.8583 818.753 126.705 818.753 183.607C818.753 234.897 763.326 269.23 875.014 335.294C970.861 391.988 1048.1 340.556 1099.47 286.84C1147.52 236.602 1147.42 225.543 1116.82 137.872Z" fill="#E9861B"/>
</g>
<g clip-path="url(#clip1_5_209)">
<path d="M171.607 221.43C170.335 220.287 169.183 219.312 168.11 218.485C167.037 217.658 166.043 216.977 165.085 216.423C163.638 215.585 163.638 213.509 165.085 212.671C166.043 212.117 167.037 211.436 168.11 210.609C169.183 209.782 170.335 208.807 171.607 207.664V221.43Z" fill="#3F4E6A"/>
<path d="M181.663 213.752C179.942 212.208 172.575 209.343 170.118 209.646C170.039 209.828 169.964 210.011 169.894 210.197C169.381 211.555 169.102 213.02 169.102 214.547C169.102 216.074 169.381 217.539 169.894 218.897C171.061 221.989 173.438 224.529 176.478 225.996C178.296 226.873 180.35 227.367 182.525 227.367C182.551 227.367 182.578 227.366 182.604 227.366C182.085 224.111 181.688 218.909 181.663 213.752Z" fill="#F7E969"/>
<path d="M182.605 201.728C182.578 201.727 182.552 201.727 182.526 201.727C180.35 201.727 178.296 202.221 176.479 203.098C173.621 204.477 171.35 206.804 170.118 209.646C170.466 210.243 170.882 210.804 171.365 211.317C173.094 213.155 175.532 214.209 178.055 214.209C179.106 214.209 180.364 214.044 181.664 213.752C181.642 209.276 181.901 204.834 182.605 201.728Z" fill="#F8D071"/>
<path d="M184.325 212.735C182.31 212.208 178.03 212.355 176.486 214.073C176.482 214.231 176.479 214.388 176.479 214.547C176.479 217.71 177.324 220.649 178.771 223.087C179.782 224.79 181.088 226.247 182.604 227.366C184.75 227.355 186.776 226.863 188.571 225.996C189.792 225.407 190.906 224.645 191.877 223.743C191.747 223.702 185.623 214.077 184.325 212.735Z" fill="#3F4E6A"/>
<path d="M188.571 203.098C186.776 202.231 184.749 201.739 182.604 201.728C181.088 202.847 179.782 204.304 178.771 206.007C177.396 208.323 176.566 211.09 176.486 214.073C177.001 214.163 177.526 214.21 178.054 214.21C179.126 214.21 180.413 214.039 181.74 213.736C182.027 214.864 182.455 215.937 183.024 216.948C184.943 220.36 188.17 222.588 191.877 223.743C193.325 222.4 194.457 220.747 195.156 218.897C195.669 217.539 195.948 216.074 195.948 214.547C195.948 213.02 195.668 211.555 195.156 210.197C193.988 207.105 191.612 204.565 188.571 203.098Z" fill="#223661"/>
<path d="M190.392 207.166C188.986 208.572 186.254 208.065 183.717 206.948C181.701 206.062 179.81 204.79 178.807 203.787C177.628 202.608 177.063 201.049 177.11 199.505C177.154 198.08 177.719 196.669 178.807 195.581C179.894 194.494 181.306 193.928 182.73 193.885C184.274 193.837 185.834 194.403 187.012 195.581C188.015 196.585 189.287 198.476 190.174 200.491C191.29 203.028 191.797 205.761 190.392 207.166Z" fill="#81DDFD"/>
<path d="M188.155 196.957C185.615 198.687 183.646 201.105 182.489 203.968C182.223 204.626 182.003 205.3 181.826 205.989C182.426 206.334 183.065 206.662 183.717 206.949C186.253 208.065 188.986 208.572 190.392 207.166C191.797 205.761 191.29 203.028 190.174 200.492C189.602 199.193 188.871 197.948 188.155 196.957Z" fill="#30CDFA"/>
<path d="M181.308 210.364C183.422 208.235 184.476 203.648 184.307 200.685C184.127 200.607 183.945 200.533 183.762 200.461C181.709 199.663 179.473 199.225 178.054 199.225C176.387 199.225 174.885 199.928 173.827 201.053C172.85 202.091 172.252 203.489 172.252 205.027C172.252 206.565 172.85 207.963 173.827 209.001C174.885 210.127 176.387 210.829 178.054 210.829C178.913 210.829 180.072 210.668 181.308 210.364Z" fill="#A3E6FF"/>
<path d="M188.635 205.027C188.635 203.181 186.658 201.692 184.307 200.685C183.575 201.693 182.964 202.793 182.489 203.968C181.682 205.965 181.281 208.122 181.308 210.364C182.114 210.166 182.952 209.908 183.762 209.593C186.345 208.589 188.635 207.015 188.635 205.027Z" fill="#81DDFD"/>
<path d="M211.063 205.235C209.897 202.35 207.684 200.002 204.648 198.646C202.826 197.833 200.708 197.377 198.343 197.377C198.241 197.377 198.14 197.379 198.039 197.38C190.07 202.489 190.117 216.671 199.253 221.285C200.984 221.208 202.628 220.913 204.124 220.412C207.018 219.442 209.359 217.702 210.716 215.291C211.54 213.826 212 212.112 212 210.173C212 208.422 211.677 206.754 211.063 205.235Z" fill="#F7E969"/>
<path d="M198.038 197.38C195.796 197.418 193.781 197.868 192.038 198.646C189.002 200.002 186.789 202.35 185.623 205.235C185.009 206.754 184.686 208.422 184.686 210.173C184.686 212.112 185.146 213.826 185.97 215.291C187.327 217.702 189.668 219.442 192.562 220.412C194.318 221 196.277 221.305 198.343 221.305C198.648 221.305 198.951 221.298 199.252 221.285C194.807 215.625 195.327 203.72 198.038 197.38Z" fill="#F8D071"/>
<path d="M194.534 202.813C194.146 202.813 193.831 202.498 193.831 202.11C193.831 201.262 193.52 199.391 192.837 197.288C192.411 195.978 191.901 194.777 191.361 193.817C191.171 193.478 191.291 193.049 191.629 192.859C191.968 192.669 192.396 192.789 192.587 193.127C193.18 194.183 193.714 195.436 194.174 196.853C194.81 198.811 195.237 200.923 195.237 202.11C195.237 202.498 194.922 202.813 194.534 202.813Z" fill="#3F4E6A"/>
<path d="M191.974 195.092C193.205 195.092 194.203 194.094 194.203 192.862C194.203 191.631 193.205 190.633 191.974 190.633C190.742 190.633 189.744 191.631 189.744 192.862C189.744 194.094 190.742 195.092 191.974 195.092Z" fill="#223661"/>
<path d="M202.152 202.813C201.764 202.813 201.449 202.498 201.449 202.11C201.449 200.923 201.876 198.811 202.512 196.853C202.972 195.436 203.506 194.183 204.1 193.127C204.29 192.789 204.719 192.669 205.057 192.859C205.396 193.049 205.516 193.478 205.326 193.817C204.786 194.777 204.275 195.978 203.85 197.288C203.166 199.391 202.855 201.262 202.855 202.11C202.855 202.498 202.541 202.813 202.152 202.813Z" fill="#3F4E6A"/>
<path d="M204.712 195.092C205.943 195.092 206.942 194.094 206.942 192.862C206.942 191.631 205.943 190.633 204.712 190.633C203.481 190.633 202.482 191.631 202.482 192.862C202.482 194.094 203.481 195.092 204.712 195.092Z" fill="#223661"/>
<path d="M190.773 213.721C192.316 213.721 193.566 212.725 193.566 211.497C193.566 210.268 192.316 209.273 190.773 209.273C189.231 209.273 187.98 210.268 187.98 211.497C187.98 212.725 189.231 213.721 190.773 213.721Z" fill="#FFA1AC"/>
<path d="M205.913 213.721C207.456 213.721 208.706 212.725 208.706 211.497C208.706 210.268 207.456 209.273 205.913 209.273C204.371 209.273 203.12 210.268 203.12 211.497C203.12 212.725 204.371 213.721 205.913 213.721Z" fill="#FFA1AC"/>
<path d="M193.731 209.78C193.343 209.78 193.028 209.465 193.028 209.076C193.028 208.731 192.747 208.45 192.402 208.45C192.056 208.45 191.775 208.731 191.775 209.076C191.775 209.465 191.461 209.78 191.072 209.78C190.684 209.78 190.369 209.465 190.369 209.076C190.369 207.956 191.281 207.044 192.402 207.044C193.523 207.044 194.434 207.956 194.434 209.076C194.434 209.465 194.119 209.78 193.731 209.78Z" fill="#425460"/>
<path d="M205.615 209.78C205.227 209.78 204.912 209.465 204.912 209.076C204.912 208.731 204.631 208.45 204.285 208.45C203.94 208.45 203.659 208.731 203.659 209.076C203.659 209.465 203.344 209.78 202.956 209.78C202.568 209.78 202.253 209.465 202.253 209.076C202.253 207.956 203.165 207.044 204.285 207.044C205.406 207.044 206.318 207.956 206.318 209.076C206.318 209.465 206.003 209.78 205.615 209.78Z" fill="#425460"/>
<path d="M198.344 211.976C197.6 211.976 196.893 211.654 196.404 211.092C196.148 210.799 196.179 210.355 196.472 210.1C196.764 209.845 197.209 209.876 197.464 210.168C197.686 210.423 198.007 210.57 198.344 210.57C198.681 210.57 199.002 210.423 199.224 210.168C199.479 209.876 199.923 209.845 200.216 210.1C200.509 210.355 200.539 210.799 200.284 211.092C199.795 211.654 199.088 211.976 198.344 211.976Z" fill="#425460"/>
</g>
<path d="M1237.53 285.851C1243.83 279.108 1254.86 281.908 1256.7 291.191C1256.81 291.654 1256.84 292.184 1256.88 292.639C1250.77 293.447 1244.55 297.334 1243.59 302.599C1242.74 307.346 1247.44 309.2 1250.84 306.793C1254.89 303.916 1257.95 299.443 1258.59 294.451C1262.48 294.274 1266.17 295.66 1267.93 299.661C1270.87 306.407 1265.48 314.665 1259.05 316.649C1258.36 316.813 1258.57 317.887 1259.26 317.723C1268.05 316.026 1273.5 304.308 1268.26 296.601C1266.19 293.627 1262.57 292.397 1258.68 292.5C1258.58 287.367 1255 282.975 1250.47 280.985C1245.21 278.704 1240.03 280.876 1236.49 284.854C1235.92 285.48 1236.96 286.403 1237.53 285.851ZM1252.85 302.451C1251.53 303.99 1249.82 305.721 1247.76 306.214C1245.78 306.714 1245.34 303.962 1245.36 302.758C1245.42 301.256 1246.56 300.002 1247.61 299.042C1249.81 296.903 1253.31 295.182 1256.79 294.591C1256.32 297.488 1254.68 300.204 1252.85 302.451Z" fill="#FAB900"/>
<path d="M1233.21 288.257C1235.29 288.444 1237.45 288.487 1239.49 288.143C1240.32 287.992 1240.04 286.837 1239.22 286.913C1237.56 287.066 1235.87 286.838 1234.24 286.617C1234.4 285.651 1234.56 284.611 1234.79 283.652C1235 282.917 1235.61 281.842 1235.23 281.054C1235.04 280.66 1234.67 280.626 1234.29 280.743C1233.37 281.037 1233.24 282.608 1233.02 283.417C1232.69 284.744 1232.51 286.009 1232.39 287.355C1232.36 287.804 1232.77 288.218 1233.21 288.257Z" fill="#FAB900"/>
<path d="M1088 32H1092.53V38.8953H1088V32Z" fill="#FF1D25"/>
<path d="M1115.85 68.1021L1119.06 64.8516L1123.59 69.4478L1120.38 72.6984L1115.85 68.1021Z" fill="#7AC943"/>
<path d="M1130 45.2505L1133.2 42L1137.73 46.5963L1134.53 49.8468L1130 45.2505Z" fill="#FBCC34"/>
<path d="M1130 101.251L1133.2 98L1137.73 102.596L1134.53 105.847L1130 101.251Z" fill="#0180CE"/>
<path d="M87.2765 126.403C84.8971 127.178 83.5963 129.735 84.3711 132.114C85.1459 134.494 87.7029 135.794 90.0823 135.02C92.4617 134.245 93.7625 131.688 92.9877 129.308C92.2129 126.929 89.6559 125.628 87.2765 126.403Z" fill="#ED1C24"/>
<path d="M755.308 290.403C752.928 291.178 751.628 293.735 752.402 296.114C753.177 298.494 755.734 299.794 758.114 299.02C760.493 298.245 761.794 295.688 761.019 293.308C760.244 290.929 757.687 289.628 755.308 290.403Z" fill="#ED1C24"/>
<path d="M139 56.1281L143.53 51.5977L146.734 54.8016L142.204 59.332L139 56.1281Z" fill="#06AAE9"/>
<path d="M63.3463 150.175L60.4413 155.886L56.4027 153.831L59.3077 148.121L63.3463 150.175Z" fill="#06AAE9"/>
<path d="M615.907 217.907H614.093V216.093C614.093 214.937 613.156 214 612 214C610.844 214 609.907 214.937 609.907 216.093V217.907H608.093C606.937 217.907 606 218.844 606 220C606 221.156 606.937 222.093 608.093 222.093H609.907V223.907C609.907 225.063 610.844 226 612 226C613.156 226 614.093 225.063 614.093 223.907V222.093H615.907C617.063 222.093 618 221.156 618 220C618 218.844 617.063 217.907 615.907 217.907Z" fill="#FABE2C"/>
<path d="M784.907 148.907H783.093V147.093C783.093 145.937 782.156 145 781 145C779.844 145 778.907 145.937 778.907 147.093V148.907H777.093C775.937 148.907 775 149.844 775 151C775 152.156 775.937 153.093 777.093 153.093H778.907V154.907C778.907 156.063 779.844 157 781 157C782.156 157 783.093 156.063 783.093 154.907V153.093H784.907C786.063 153.093 787 152.156 787 151C787 149.844 786.063 148.907 784.907 148.907Z" fill="#FABE2C"/>
<path d="M82.6382 286.014C74.9967 295.78 60.0113 293.364 56.5379 281.181C56.3394 280.577 56.2402 279.872 56.1409 279.268C64.1794 277.456 72.0195 271.515 72.7141 264.367C73.3096 257.923 66.8589 256.01 62.5916 259.635C57.5303 263.964 53.9576 270.307 53.6599 277.053C48.4994 277.757 43.4381 276.348 40.6593 271.213C35.995 262.554 42.2472 250.875 50.5834 247.452C51.4766 247.15 51.0796 245.74 50.1865 246.042C38.6745 249.365 32.7201 265.676 40.5601 275.341C43.6366 279.066 48.5986 280.275 53.7591 279.67C54.4538 286.517 59.7136 291.954 65.9656 294.068C73.2102 296.485 79.8593 292.961 84.1267 287.222C84.8215 286.316 83.3328 285.208 82.6382 286.014ZM60.4083 265.676C61.9961 263.461 64.0802 260.943 66.7597 260.037C69.3398 259.131 70.2331 262.756 70.3322 264.367C70.4314 266.38 69.0421 268.193 67.7519 269.602C65.0726 272.723 60.6068 275.442 56.0417 276.65C56.3394 272.723 58.225 268.897 60.4083 265.676Z" fill="#9B51E0"/>
<path d="M88.1958 282.288C85.417 282.288 82.539 282.49 79.8595 283.194C78.768 283.497 79.2641 285.007 80.3559 284.805C82.5392 284.403 84.8217 284.503 87.005 284.604C86.9058 285.913 86.8066 287.322 86.6081 288.631C86.4096 289.638 85.7149 291.148 86.3104 292.155C86.6081 292.659 87.1043 292.659 87.6005 292.457C88.7914 291.954 88.7914 289.839 88.9899 288.732C89.2876 286.919 89.3867 285.208 89.3867 283.396C89.3867 282.792 88.7912 282.288 88.1958 282.288Z" fill="#9B51E0"/>
</g>
<defs>
<filter id="filter0_d_5_209" x="734.794" y="48.8971" width="473.411" height="416.411" filterUnits="userSpaceOnUse" color-interpolation-filters="sRGB">
<feFlood flood-opacity="0" result="BackgroundImageFix"/>
<feColorMatrix in="SourceAlpha" type="matrix" values="0 0 0 0 0 0 0 0 0 0 0 0 0 0 0 0 0 0 127 0" result="hardAlpha"/>
<feOffset dy="35.1029"/>
<feGaussianBlur stdDeviation="35.1029"/>
<feComposite in2="hardAlpha" operator="out"/>
<feColorMatrix type="matrix" values="0 0 0 0 0.94902 0 0 0 0 0.611765 0 0 0 0 0.121569 0 0 0 0.2 0"/>
<feBlend mode="normal" in2="BackgroundImageFix" result="effect1_dropShadow_5_209"/>
<feBlend mode="normal" in="SourceGraphic" in2="effect1_dropShadow_5_209" result="shape"/>
</filter>
<clipPath id="clip0_5_209">
<rect width="1280" height="326" rx="20" fill="white"/>
</clipPath>
<clipPath id="clip1_5_209">
<rect width="48" height="48" fill="white" transform="translate(164 185)"/>
</clipPath>
</defs>
</svg>
