<svg width="120" height="120" viewBox="0 0 120 120" fill="none" xmlns="http://www.w3.org/2000/svg">
<g clip-path="url(#clip0_3_1843)">
<path d="M102.657 73.7208C101.836 73.7208 101.088 73.7961 100.466 73.914L101.776 80.8222L101.744 80.828C101.755 80.8259 102.891 80.6384 104.074 80.9117C105.531 81.2478 105.989 82.0376 106.245 82.7663C107.42 86.1104 109.774 88.3946 112.874 89.198C114.215 89.5458 115.425 89.5447 117.001 89.2803C119.048 88.9367 120.379 86.933 119.903 84.9127C119.491 83.1591 117.771 82.0578 116.029 82.3906C115.645 82.4639 115.25 82.4656 114.862 82.4201C114.716 82.403 114.584 82.3796 114.493 82.3491C114.036 82.1968 113.371 81.8363 112.879 80.4352C111.004 75.1011 106.169 73.7208 102.657 73.7208Z" fill="#FFBBA6"/>
<path d="M103.282 62.9259L57.9776 35.1834C53.1748 35.5615 45.0073 36.8416 42.9134 37.3816C41.753 37.6809 40.5314 37.2473 39.807 36.293C36.143 31.466 30.3614 28.6024 24.1882 28.7116L16.7011 28.8441C14.877 28.8764 13.638 30.7099 14.2891 32.4145L19.1848 45.233C19.5638 46.2253 19.3055 47.3437 18.5386 48.0787C15.4481 51.0401 12.8262 55.338 11.1591 58.395C10.5905 59.4377 9.49852 60.0848 8.3107 60.0848H3.72703C1.66875 60.0846 0 61.7531 0 63.8116V80.0822C0 85.5841 4.46016 90.0443 9.96211 90.0443C12.312 98.793 18.143 104.343 22.3111 107.33V117.656C22.3111 118.95 23.3604 120 24.6546 120H34.9962C36.2904 120 37.3397 118.95 37.3397 117.656L37.3385 111.714C37.3385 111.714 56.7968 118.89 75.0956 111.759L75.097 117.656C75.097 118.95 76.1463 120 77.4405 120H87.5311C88.8253 120 89.8746 118.95 89.8746 117.656V110.792C89.8746 108.818 90.7226 106.929 92.2296 105.655C100.559 98.6154 105.849 88.0924 105.849 76.3326C105.849 71.8296 104.811 67.0116 103.282 62.9259Z" fill="#FFDDCD"/>
<path d="M56.5039 37.3375V114.911C62.2677 114.983 68.7509 114.231 75.0952 111.759L75.0966 117.656C75.0966 118.95 76.1459 120 77.4402 120H87.5307C88.8249 120 89.8742 118.95 89.8742 117.656V110.792C89.8742 108.818 90.7222 106.929 92.2292 105.655C100.558 98.6153 105.849 88.0924 105.849 76.3326C105.849 71.8298 104.81 67.0115 103.282 62.9259L56.5039 37.3375Z" fill="#FFCBBB"/>
<path d="M23.8965 64.4346C25.8381 64.4346 27.4121 62.8606 27.4121 60.9189C27.4121 58.9773 25.8381 57.4033 23.8965 57.4033C21.9549 57.4033 20.3809 58.9773 20.3809 60.9189C20.3809 62.8606 21.9549 64.4346 23.8965 64.4346Z" fill="#2E2E2E"/>
<path d="M44.7599 58.1668C43.3592 58.1668 42.0355 57.3242 41.4894 55.9428C40.7755 54.1372 41.6605 52.0948 43.4661 51.3809C53.6912 47.3382 58.5917 47.7017 68.1263 50.8463C69.9702 51.4545 70.9721 53.4422 70.3639 55.2861C69.7557 57.1299 67.7692 58.1323 65.9242 57.5236C57.7042 54.8131 54.5075 54.5766 46.0515 57.9195C45.6271 58.0873 45.1897 58.1668 44.7599 58.1668Z" fill="#FFCBBB"/>
<path d="M68.1261 50.8415C63.552 49.3328 60.0444 48.4668 56.5039 48.4178V55.4507C59.2452 55.5025 62.0171 56.2305 65.9237 57.5189C67.7687 58.1275 69.7555 57.1251 70.3634 55.2813C70.9714 53.4375 69.9699 51.4497 68.1261 50.8415Z" fill="#FFBBA6"/>
<path d="M86.8056 66.3888C105.138 66.3888 120 51.5272 120 33.1945C120 14.8618 105.138 0.000244141 86.8056 0.000244141C68.4729 0.000244141 53.6113 14.8618 53.6113 33.1945C53.6113 51.5272 68.4729 66.3888 86.8056 66.3888Z" fill="#FFF085"/>
<path d="M86.8398 0.000244141V66.3879C105.157 66.3696 120 51.5154 120 33.1941C120 14.8727 105.157 0.0185254 86.8398 0.000244141Z" fill="#FFD700"/>
<path d="M86.8061 53.8561C98.2172 53.8561 107.468 44.6056 107.468 33.1945C107.468 21.7835 98.2172 12.533 86.8061 12.533C75.395 12.533 66.1445 21.7835 66.1445 33.1945C66.1445 44.6056 75.395 53.8561 86.8061 53.8561Z" fill="#FFD700"/>
<path d="M86.8271 12.533V53.8559C98.2286 53.8444 107.468 44.5985 107.468 33.1945C107.468 21.7905 98.2286 12.5442 86.8271 12.533Z" fill="#FFB139"/>
</g>
<defs>
<clipPath id="clip0_3_1843">
<rect width="120" height="120" fill="white"/>
</clipPath>
</defs>
</svg>
