<svg width="633" height="555" viewBox="0 0 633 555" fill="none" xmlns="http://www.w3.org/2000/svg">
<rect x="134" y="229" width="459" height="325" rx="60" fill="#FFF3E8"/>
<path d="M189.219 516.337C194.982 529.448 184.462 543.579 170.264 540.615C169.546 540.495 168.779 540.219 168.115 539.997C170.613 530.748 168.828 519.487 161.97 514.934C155.771 510.861 150.359 516.476 151.727 522.815C153.38 530.351 157.872 537.434 164.536 541.362C162.469 547.054 158.315 551.508 151.622 551.612C140.348 551.766 131.901 539.059 132.93 528.638C133.105 527.557 131.465 527.209 131.289 528.29C128.447 541.927 141.741 556.814 155.745 553.931C161.172 552.763 165.069 548.303 167.238 542.665C174.54 545.626 182.875 543.129 188.384 537.827C194.733 531.665 194.751 522.928 191.244 515.453C190.701 514.251 188.779 515.19 189.219 516.337ZM156.662 528.306C155.277 525.482 153.853 521.985 154.381 518.74C154.854 515.597 159.003 516.623 160.686 517.386C162.777 518.365 163.862 520.768 164.593 522.853C166.306 527.287 166.65 533.345 165.413 538.694C161.6 536.279 158.745 532.284 156.662 528.306Z" fill="#EF8BBD"/>
<path d="M188.452 508.542C186.954 511.403 185.607 514.474 184.876 517.612C184.594 518.898 186.389 519.198 186.774 517.965C187.543 515.501 188.875 513.205 190.153 511.011C191.424 511.816 192.796 512.675 194.014 513.582C194.926 514.327 196.079 515.853 197.419 515.78C198.089 515.744 198.356 515.233 198.42 514.614C198.552 513.118 196.413 511.983 195.399 511.184C193.726 509.904 192.048 508.883 190.214 507.91C189.603 507.586 188.773 507.929 188.452 508.542Z" fill="#EF8BBD"/>
<path d="M76.5029 252.496L79.6253 248.966L84.0403 253.958L80.9179 257.487L76.5029 252.496Z" fill="#FBCC34"/>
<path d="M164.167 235.756H168.583V243.244H164.167V235.756Z" fill="#FF1D25"/>
<path d="M133.905 233.991L138.32 229L141.443 232.53L137.028 237.521L133.905 233.991Z" fill="#06AAE9"/>
<path d="M191.309 274.96L194.431 271.43L198.846 276.421L195.724 279.951L191.309 274.96Z" fill="#7AC943"/>
<path d="M153.128 295.657H157.543V303.145H153.128V295.657Z" fill="#FF1D25"/>
<g clip-path="url(#clip0_3_1861)">
<path d="M608.05 508.948C610.013 508.144 611.766 507.487 613.364 506.971C614.962 506.454 616.407 506.077 617.755 505.833C619.793 505.464 620.67 503.014 619.341 501.404C618.461 500.339 617.591 499.109 616.693 497.672C615.794 496.235 614.865 494.591 613.867 492.696L608.05 508.948Z" fill="#3F4E6A"/>
<path d="M599.593 495.572C602.248 494.487 612.032 494.263 614.763 495.674C614.778 495.923 614.787 496.171 614.791 496.421C614.814 498.244 614.52 500.093 613.874 501.896C613.229 503.699 612.285 505.308 611.114 506.692C608.449 509.842 604.61 511.821 600.451 512.25C597.966 512.507 595.367 512.209 592.836 511.277C592.805 511.265 592.775 511.253 592.744 511.241C594.724 507.62 597.384 501.649 599.593 495.572Z" fill="#F7E969"/>
<path d="M603.58 480.972C603.61 480.983 603.641 480.993 603.672 481.005C606.203 481.937 608.385 483.402 610.129 485.216C612.871 488.07 614.531 491.791 614.763 495.674C614.106 496.229 613.385 496.714 612.606 497.113C609.818 498.541 606.535 498.741 603.599 497.659C602.375 497.208 600.982 496.474 599.593 495.572C601.51 490.297 603.086 484.941 603.58 480.972Z" fill="#F8D071"/>
<path d="M596.924 493.23C599.492 493.472 604.41 495.479 605.481 498.17C605.419 498.358 605.356 498.546 605.289 498.733C603.952 502.468 601.727 505.575 599.012 507.832C597.116 509.409 594.981 510.57 592.744 511.242C590.252 510.308 588.101 508.858 586.378 507.065C585.207 505.846 584.233 504.468 583.484 502.988C583.652 502.995 594.846 494.257 596.924 493.23Z" fill="#3F4E6A"/>
<path d="M596.056 480.031C598.511 479.778 601.078 480.066 603.58 480.972C604.871 482.944 605.774 485.224 606.231 487.668C606.852 490.991 606.648 494.614 605.481 498.17C604.844 498.055 604.214 497.886 603.599 497.659C602.351 497.199 600.926 496.446 599.51 495.519C598.699 496.728 597.747 497.812 596.658 498.761C592.982 501.967 588.286 503.213 583.484 502.988C582.367 500.781 581.748 498.345 581.717 495.861C581.694 494.037 581.988 492.188 582.633 490.385C583.279 488.582 584.223 486.973 585.394 485.589C588.059 482.44 591.898 480.46 596.056 480.031Z" fill="#223661"/>
<path d="M592.218 484.054C593.259 486.316 596.654 486.889 600.077 486.659C602.798 486.476 605.536 485.785 607.128 485.031C608.997 484.145 610.314 482.547 610.911 480.704C611.463 479.003 611.401 477.094 610.595 475.344C609.789 473.594 608.386 472.321 606.746 471.659C604.97 470.941 602.916 470.94 601.047 471.826C599.456 472.58 597.176 474.268 595.292 476.267C592.921 478.783 591.176 481.792 592.218 484.054Z" fill="#81DDFD"/>
<path d="M599.136 472.959C601.361 476.091 602.63 479.79 602.766 483.667C602.798 484.557 602.769 485.448 602.684 486.336C601.839 486.487 600.958 486.6 600.078 486.659C596.655 486.889 593.26 486.316 592.219 484.054C591.177 481.792 592.922 478.783 595.293 476.267C596.507 474.979 597.884 473.822 599.136 472.959Z" fill="#30CDFA"/>
<path d="M601.438 491.724C599.878 488.304 600.589 482.436 602.038 479.01C602.28 478.996 602.523 478.986 602.767 478.981C605.493 478.919 608.281 479.36 609.932 479.969C611.871 480.683 613.323 482.157 614.079 483.939C614.776 485.583 614.881 487.491 614.232 489.306C613.582 491.122 612.295 492.516 610.719 493.323C609.012 494.197 606.967 494.383 605.028 493.668C604.028 493.3 602.748 492.612 601.438 491.724Z" fill="#A3E6FF"/>
<path d="M595.166 482.281C595.946 480.102 598.876 479.191 602.038 479.01C602.463 480.515 602.71 482.076 602.766 483.667C602.861 486.37 602.417 489.088 601.437 491.724C600.583 491.144 599.717 490.48 598.908 489.761C596.326 487.468 594.326 484.628 595.166 482.281Z" fill="#81DDFD"/>
<path d="M568.98 472.911C571.556 470.005 575.124 468.182 579.23 467.883C581.694 467.704 584.351 468.073 587.103 469.087C587.222 469.131 587.339 469.177 587.456 469.222C594.57 478.671 588.522 495.394 575.94 496.923C573.958 496.09 572.17 495.037 570.641 493.804C567.683 491.418 565.694 488.361 565.135 484.932C564.795 482.849 564.983 480.628 565.803 478.338C566.542 476.272 567.624 474.441 568.98 472.911Z" fill="#F7E969"/>
<path d="M587.456 469.222C590.05 470.228 592.204 471.623 593.903 473.289C596.863 476.191 598.446 479.913 598.584 483.818C598.656 485.875 598.328 487.983 597.588 490.05C596.768 492.34 595.508 494.165 593.93 495.542C591.332 497.807 587.872 498.857 584.095 498.761C581.803 498.703 579.395 498.223 576.99 497.338C576.635 497.206 576.285 497.068 575.941 496.923C583.506 492.147 587.932 477.87 587.456 469.222Z" fill="#F8D071"/>
<path d="M589.239 477.138C589.69 477.305 590.19 477.068 590.354 476.61C590.712 475.608 591.865 473.533 593.549 471.343C594.598 469.979 595.699 468.78 596.733 467.878C597.098 467.56 597.139 467.002 596.826 466.632C596.512 466.263 595.963 466.221 595.598 466.539C594.462 467.53 593.311 468.781 592.176 470.257C590.609 472.295 589.219 474.606 588.718 476.007C588.553 476.465 588.787 476.972 589.239 477.138Z" fill="#3F4E6A"/>
<path d="M595.481 469.121C594.048 468.593 593.308 466.986 593.828 465.532C594.349 464.079 595.932 463.328 597.365 463.856C598.798 464.384 599.538 465.99 599.018 467.444C598.497 468.898 596.914 469.649 595.481 469.121Z" fill="#223661"/>
<path d="M580.373 473.872C580.825 474.038 581.325 473.802 581.489 473.343C581.99 471.943 582.386 469.266 582.473 466.682C582.537 464.811 582.445 463.103 582.201 461.602C582.122 461.121 581.674 460.795 581.2 460.875C580.725 460.955 580.404 461.409 580.483 461.89C580.705 463.256 580.792 464.892 580.733 466.621C580.639 469.397 580.211 471.739 579.852 472.74C579.688 473.199 579.922 473.705 580.373 473.872Z" fill="#3F4E6A"/>
<path d="M580.657 463.659C579.224 463.131 578.484 461.524 579.004 460.07C579.525 458.617 581.108 457.866 582.541 458.394C583.974 458.922 584.714 460.529 584.193 461.982C583.673 463.436 582.089 464.187 580.657 463.659Z" fill="#223661"/>
<path d="M589.004 491.629C587.209 490.968 586.174 489.256 586.693 487.806C587.213 486.355 589.089 485.716 590.884 486.377C592.679 487.038 593.713 488.75 593.194 490.201C592.675 491.651 590.799 492.29 589.004 491.629Z" fill="#FFA1AC"/>
<path d="M571.386 485.138C569.591 484.476 568.557 482.765 569.076 481.314C569.595 479.864 571.471 479.225 573.266 479.886C575.061 480.547 576.096 482.259 575.577 483.709C575.057 485.16 573.181 485.799 571.386 485.138Z" fill="#FFA1AC"/>
<path d="M587.228 485.708C587.68 485.874 588.18 485.638 588.344 485.179C588.49 484.771 588.935 484.56 589.337 484.708C589.739 484.856 589.947 485.308 589.801 485.716C589.637 486.175 589.871 486.681 590.322 486.848C590.774 487.014 591.274 486.778 591.438 486.319C591.912 484.996 591.236 483.528 589.932 483.048C588.627 482.567 587.181 483.253 586.707 484.576C586.543 485.035 586.777 485.541 587.228 485.708Z" fill="#425460"/>
<path d="M573.399 480.612C573.851 480.779 574.351 480.542 574.515 480.084C574.661 479.676 575.106 479.465 575.508 479.613C575.91 479.761 576.118 480.213 575.972 480.621C575.808 481.079 576.042 481.586 576.493 481.752C576.945 481.919 577.445 481.682 577.609 481.224C578.082 479.901 577.407 478.433 576.103 477.953C574.798 477.472 573.352 478.158 572.878 479.481C572.714 479.939 572.947 480.446 573.399 480.612Z" fill="#425460"/>
<path d="M580.933 486.323C581.798 486.642 582.757 486.565 583.564 486.112C583.985 485.875 584.137 485.338 583.904 484.911C583.671 484.484 583.141 484.33 582.721 484.566C582.354 484.772 581.919 484.807 581.527 484.663C581.135 484.518 580.823 484.208 580.672 483.812C580.499 483.357 579.995 483.13 579.547 483.306C579.098 483.482 578.875 483.993 579.048 484.448C579.38 485.321 580.067 486.004 580.933 486.323Z" fill="#425460"/>
</g>
<path d="M532.943 71.9482C535.445 71.9482 537.474 69.8901 537.474 67.3514C537.474 64.8126 535.445 62.7545 532.943 62.7545C530.441 62.7545 528.412 64.8126 528.412 67.3514C528.412 69.8901 530.441 71.9482 532.943 71.9482Z" fill="#ED1C24"/>
<path d="M504.155 73.5734L507.359 70.3229L511.89 74.9191L508.686 78.1697L504.155 73.5734Z" fill="#FBCC34"/>
<path d="M594.111 58.1576H598.642V65.0528H594.111V58.1576Z" fill="#FF1D25"/>
<path d="M563.059 56.5324L567.589 51.9362L570.793 55.1867L566.263 59.783L563.059 56.5324Z" fill="#06AAE9"/>
<path d="M542.67 86.4105L547.2 81.8142L550.404 85.0647L545.874 89.661L542.67 86.4105Z" fill="#7AC943"/>
<path d="M621.963 94.2598L625.167 91.0093L629.697 95.6055L626.493 98.8561L621.963 94.2598Z" fill="#7AC943"/>
<path d="M582.783 113.32H587.314V120.215H582.783V113.32Z" fill="#FF1D25"/>
<path d="M190.766 67.2255C191.498 67.119 192.231 67.0099 192.962 66.8932C227.718 61.5409 259.82 44.8754 284.43 19.4071L284.913 18.9046L287.627 45.3254L264.604 36.9557L263.579 63.4866L242.119 51.4518L237.267 78.9126L216.238 61.8452L210.469 85.422L190.767 67.2243" fill="#FBCC34"/>
<path d="M280 55.9943C279.414 56.492 278.828 56.9861 278.241 57.4767C249.983 81.0067 215.163 94.8797 178.723 97.1277L178 97.1725L197.345 116.866L206.138 93.5918L227.241 109.705L234.276 84.64L257.138 100.753L258.897 72.1075L280 82.8496V55.9943Z" fill="#93CAE2"/>
<path d="M75.7935 191.374C68.152 201.141 53.1666 198.724 49.6931 186.542C49.4947 185.937 49.3954 185.233 49.2962 184.629C57.3347 182.816 65.1747 176.876 65.8694 169.727C66.4649 163.284 60.0142 161.371 55.7468 164.995C50.6856 169.325 47.1129 175.668 46.8152 182.413C41.6546 183.118 36.5933 181.709 33.8146 176.574C29.1503 167.915 35.4025 156.236 43.7387 152.812C44.6319 152.51 44.2349 151.101 43.3417 151.403C31.8298 154.726 25.8753 171.036 33.7154 180.702C36.7918 184.427 41.7539 185.635 46.9144 185.031C47.6091 191.878 52.8689 197.314 59.1209 199.429C66.3655 201.845 73.0146 198.321 77.282 192.582C77.9768 191.676 76.488 190.569 75.7935 191.374ZM53.5635 171.036C55.1514 168.821 57.2355 166.304 59.915 165.398C62.4951 164.492 63.3884 168.116 63.4875 169.727C63.5867 171.741 62.1973 173.553 60.9072 174.963C58.2279 178.084 53.762 180.803 49.1969 182.011C49.4947 178.084 51.3802 174.258 53.5635 171.036Z" fill="#9B51E0"/>
<path d="M81.3511 187.649C78.5723 187.649 75.6943 187.85 73.0148 188.555C71.9233 188.857 72.4194 190.367 73.5112 190.166C75.6945 189.763 77.977 189.864 80.1603 189.965C80.0611 191.273 79.9618 192.683 79.7634 193.992C79.5649 194.999 78.8702 196.509 79.4656 197.516C79.7634 198.019 80.2596 198.019 80.7558 197.818C81.9467 197.314 81.9467 195.2 82.1451 194.093C82.4429 192.28 82.5419 190.569 82.5419 188.756C82.5419 188.152 81.9465 187.649 81.3511 187.649Z" fill="#9B51E0"/>
<path d="M594.256 160.091C599.379 154.614 608.337 156.888 609.827 164.428C609.917 164.804 609.941 165.234 609.971 165.604C605.009 166.26 599.959 169.418 599.177 173.693C598.492 177.549 602.304 179.055 605.072 177.1C608.357 174.763 610.842 171.13 611.362 167.076C614.525 166.932 617.52 168.058 618.945 171.308C621.334 176.786 616.957 183.493 611.734 185.105C611.177 185.239 611.347 186.111 611.903 185.977C619.046 184.599 623.476 175.081 619.213 168.822C617.537 166.407 614.592 165.408 611.434 165.491C611.359 161.322 608.446 157.755 604.764 156.139C600.497 154.286 596.29 156.05 593.415 159.281C592.948 159.79 593.795 160.539 594.256 160.091ZM606.7 173.574C605.626 174.824 604.236 176.229 602.567 176.63C600.958 177.036 600.599 174.8 600.621 173.823C600.662 172.603 601.595 171.585 602.448 170.804C604.229 169.067 607.072 167.67 609.899 167.189C609.52 169.543 608.185 171.748 606.7 173.574Z" fill="#FAB900"/>
<path d="M590.752 162.045C592.435 162.197 594.189 162.232 595.848 161.953C596.525 161.83 596.3 160.892 595.629 160.954C594.285 161.078 592.908 160.893 591.59 160.713C591.716 159.929 591.847 159.084 592.033 158.305C592.204 157.708 592.701 156.835 592.391 156.195C592.236 155.875 591.936 155.848 591.625 155.942C590.878 156.181 590.771 157.457 590.595 158.114C590.324 159.192 590.177 160.219 590.086 161.313C590.055 161.677 590.391 162.013 590.752 162.045Z" fill="#FAB900"/>
<path d="M58.4872 425.65H56.913V424.053C56.913 423.035 56.0997 422.21 55.0966 422.21C54.0935 422.21 53.2802 423.035 53.2802 424.053V425.65H51.706C50.7029 425.65 49.8896 426.475 49.8896 427.493C49.8896 428.51 50.7029 429.335 51.706 429.335H53.2802V430.932C53.2802 431.95 54.0935 432.775 55.0966 432.775C56.0997 432.775 56.913 431.95 56.913 430.932V429.335H58.4872C59.4903 429.335 60.3036 428.51 60.3036 427.493C60.3036 426.475 59.4903 425.65 58.4872 425.65Z" fill="#31BEBE"/>
<path d="M40.5666 457.346C39.8552 457.346 39.18 456.919 38.8893 456.212C38.5033 455.272 38.9413 454.193 39.8672 453.802L51.492 448.888C52.4179 448.496 53.4815 448.941 53.8673 449.88C54.2532 450.819 53.8152 451.898 52.8893 452.29L41.2645 457.204C41.0361 457.3 40.7994 457.346 40.5666 457.346Z" fill="#FABE2C"/>
<path d="M34.7548 455.381C34.6155 455.381 34.4741 455.364 34.3325 455.33C33.3566 455.094 32.754 454.101 32.9863 453.11L37.83 432.471C38.0624 431.481 39.0412 430.87 40.0177 431.106C40.9936 431.341 41.5962 432.335 41.3639 433.325L36.5202 453.964C36.3216 454.811 35.5766 455.381 34.7548 455.381Z" fill="#FABE2C"/>
<path d="M27.0009 455.38C26.1115 455.38 25.3344 454.717 25.205 453.798L23.2675 440.038C23.1257 439.031 23.8157 438.097 24.8089 437.953C25.8006 437.809 26.722 438.51 26.8639 439.517L28.8014 453.277C28.9432 454.284 28.2532 455.218 27.26 455.362C27.173 455.374 27.0864 455.38 27.0009 455.38Z" fill="#FED843"/>
<path d="M19.2537 457.346C18.7888 457.346 18.3239 457.166 17.9694 456.806L6.34452 445.012C5.63516 444.293 5.63516 443.126 6.34452 442.406C7.05375 441.686 8.20389 441.686 8.91324 442.406L20.5381 454.2C21.2474 454.919 21.2474 456.086 20.5381 456.806C20.1833 457.166 19.7185 457.346 19.2537 457.346Z" fill="#FED843"/>
<path d="M30.8789 430.81C31.8821 430.81 32.6953 429.984 32.6953 428.967C32.6953 427.949 31.8821 427.124 30.8789 427.124C29.8757 427.124 29.0625 427.949 29.0625 428.967C29.0625 429.984 29.8757 430.81 30.8789 430.81Z" fill="#FED843"/>
<path d="M47.3467 441.62C48.3499 441.62 49.1631 440.795 49.1631 439.778C49.1631 438.76 48.3499 437.935 47.3467 437.935C46.3435 437.935 45.5303 438.76 45.5303 439.778C45.5303 440.795 46.3435 441.62 47.3467 441.62Z" fill="#AD77E3"/>
<path d="M32.6953 428.967C32.6953 427.949 31.882 427.124 30.8789 427.124V430.81C31.882 430.81 32.6953 429.984 32.6953 428.967Z" fill="#FABE2C"/>
<path d="M5.69133 432.775C2.55311 432.775 0 430.185 0 427.001C0 423.817 2.55311 421.227 5.69133 421.227C8.82955 421.227 11.3827 423.817 11.3827 427.001C11.3827 430.185 8.82955 432.775 5.69133 432.775Z" fill="#FF6666"/>
<defs>
<clipPath id="clip0_3_1861">
<rect width="59.5281" height="60.1905" fill="white" transform="matrix(-0.938334 -0.345729 -0.337025 0.941496 632.299 469.2)"/>
</clipPath>
</defs>
</svg>
