<svg width="21" height="21" viewBox="0 0 21 21" fill="none" xmlns="http://www.w3.org/2000/svg">
<path d="M20.2104 19.29L16.5004 15.61C17.9405 13.8144 18.6379 11.5353 18.4492 9.24133C18.2605 6.94733 17.2001 4.81281 15.4859 3.27667C13.7718 1.74053 11.5342 0.919537 9.23332 0.982497C6.93243 1.04546 4.74311 1.98759 3.11553 3.61517C1.48795 5.24275 0.545824 7.43207 0.482863 9.73295C0.419903 12.0338 1.2409 14.2714 2.77704 15.9855C4.31318 17.6997 6.44769 18.7601 8.74169 18.9488C11.0357 19.1375 13.3148 18.4401 15.1104 17L18.7904 20.68C18.8834 20.7738 18.994 20.8482 19.1158 20.8989C19.2377 20.9497 19.3684 20.9758 19.5004 20.9758C19.6324 20.9758 19.7631 20.9497 19.885 20.8989C20.0068 20.8482 20.1174 20.7738 20.2104 20.68C20.3906 20.4936 20.4914 20.2444 20.4914 19.985C20.4914 19.7257 20.3906 19.4765 20.2104 19.29ZM9.50039 17C8.11592 17 6.76255 16.5895 5.6114 15.8203C4.46026 15.0511 3.56305 13.9579 3.03324 12.6788C2.50342 11.3997 2.3648 9.99226 2.6349 8.63439C2.90499 7.27653 3.57168 6.02925 4.55065 5.05028C5.52961 4.07131 6.77689 3.40463 8.13476 3.13453C9.49263 2.86443 10.9001 3.00306 12.1792 3.53287C13.4583 4.06268 14.5515 4.95989 15.3207 6.11103C16.0899 7.26218 16.5004 8.61556 16.5004 10C16.5004 11.8565 15.7629 13.637 14.4501 14.9498C13.1374 16.2625 11.3569 17 9.50039 17Z" fill="white"/>
</svg>
